<svg width="208" height="213" viewBox="0 0 208 213" fill="none" xmlns="http://www.w3.org/2000/svg">
<g filter="url(#filter0_d_14_118)">
<rect x="4" width="200" height="204.356" rx="4" fill="white"/>
<mask id="mask0_14_118" style="mask-type:alpha" maskUnits="userSpaceOnUse" x="36" y="33" width="137" height="137">
<rect x="36" y="33.1287" width="136.282" height="136.282" rx="4" fill="#D9D9D9"/>
</mask>
<g mask="url(#mask0_14_118)">
<path d="M98.5001 132.501C105.598 132.501 111.631 130.016 116.6 125.048C121.569 120.079 124.053 114.046 124.053 106.948C124.053 99.8499 121.569 93.8166 116.6 88.848C111.631 83.8794 105.598 81.3951 98.5001 81.3951C91.402 81.3951 85.3687 83.8794 80.4001 88.848C75.4315 93.8166 72.9472 99.8499 72.9472 106.948C72.9472 114.046 75.4315 120.079 80.4001 125.048C85.3687 130.016 91.402 132.501 98.5001 132.501ZM98.5001 121.144C94.5252 121.144 91.1654 119.772 88.4209 117.027C85.6763 114.283 84.304 110.923 84.304 106.948C84.304 102.973 85.6763 99.6133 88.4209 96.8688C91.1654 94.1242 94.5252 92.7519 98.5001 92.7519C102.475 92.7519 105.835 94.1242 108.579 96.8688C111.324 99.6133 112.696 102.973 112.696 106.948C112.696 110.923 111.324 114.283 108.579 117.027C105.835 119.772 102.475 121.144 98.5001 121.144ZM53.0728 152.375C49.9496 152.375 47.2761 151.263 45.052 149.039C42.828 146.815 41.7159 144.142 41.7159 141.018V72.8775C41.7159 69.7543 42.828 67.0808 45.052 64.8567C47.2761 62.6327 49.9496 61.5206 53.0728 61.5206H69.2109C70.3259 61.5206 71.3902 61.0553 72.1473 60.2368L80.2773 51.4476C81.0344 50.6292 82.0987 50.1638 83.2137 50.1638H113.786C114.901 50.1638 115.966 50.6292 116.723 51.4477L124.853 60.2368C125.61 61.0553 126.674 61.5206 127.789 61.5206H143.927C147.05 61.5206 149.724 62.6327 151.948 64.8567C154.172 67.0808 155.284 69.7543 155.284 72.8775V141.018C155.284 144.142 154.172 146.815 151.948 149.039C149.724 151.263 147.05 152.375 143.927 152.375H53.0728ZM53.0728 137.018C53.0728 139.228 54.8636 141.018 57.0728 141.018H139.927C142.136 141.018 143.927 139.228 143.927 137.018V76.8775C143.927 74.6683 142.136 72.8775 139.927 72.8775H122.695C121.57 72.8775 120.498 72.4042 119.74 71.5737L111.756 62.8244C110.999 61.9939 109.926 61.5206 108.802 61.5206H88.1985C87.0741 61.5206 86.0016 61.9939 85.2437 62.8244L77.26 71.5737C76.5022 72.4042 75.4297 72.8775 74.3053 72.8775H57.0728C54.8636 72.8775 53.0728 74.6683 53.0728 76.8775V137.018Z" fill="black"/>
</g>
</g>
<defs>
<filter id="filter0_d_14_118" x="0" y="0" width="208" height="212.356" filterUnits="userSpaceOnUse" color-interpolation-filters="sRGB">
<feFlood flood-opacity="0" result="BackgroundImageFix"/>
<feColorMatrix in="SourceAlpha" type="matrix" values="0 0 0 0 0 0 0 0 0 0 0 0 0 0 0 0 0 0 127 0" result="hardAlpha"/>
<feOffset dy="4"/>
<feGaussianBlur stdDeviation="2"/>
<feComposite in2="hardAlpha" operator="out"/>
<feColorMatrix type="matrix" values="0 0 0 0 0 0 0 0 0 0 0 0 0 0 0 0 0 0 0.25 0"/>
<feBlend mode="normal" in2="BackgroundImageFix" result="effect1_dropShadow_14_118"/>
<feBlend mode="normal" in="SourceGraphic" in2="effect1_dropShadow_14_118" result="shape"/>
</filter>
</defs>
</svg>
