<svg width="131" height="146" viewBox="0 0 131 146" fill="none" xmlns="http://www.w3.org/2000/svg">
<path d="M57.48 0V30.94C25.73 30.96 0 56.7 0 88.45C0 120.2 25.73 145.94 57.48 145.97C57.48 145.97 57.49 145.97 57.5 145.97C57.5 145.97 57.51 145.97 57.52 145.97C97.81 145.95 130.47 113.28 130.47 72.99C130.47 32.7 97.79 0 57.48 0ZM57.59 136.03C57.59 136.03 57.58 136.03 57.57 136.03C57.57 136.03 57.56 136.03 57.55 136.03C36.92 136.01 20.21 119.28 20.21 98.65C20.21 78.02 36.93 61.29 57.55 61.27V30.94C86.57 30.94 110.1 54.47 110.1 83.49C110.1 112.51 86.6 136.01 57.59 136.04V136.03Z" fill="#FF7301"/>
</svg>
