<svg width="730" height="172" viewBox="0 0 730 172" fill="none" xmlns="http://www.w3.org/2000/svg">
<path d="M57.48 0.359985V31.3C25.73 31.32 0 57.06 0 88.81C0 120.56 25.73 146.3 57.48 146.33C57.48 146.33 57.49 146.33 57.5 146.33C57.5 146.33 57.51 146.33 57.52 146.33C97.81 146.31 130.47 113.64 130.47 73.35C130.47 33.06 97.79 0.359985 57.48 0.359985ZM57.59 136.39C57.59 136.39 57.58 136.39 57.57 136.39C57.57 136.39 57.56 136.39 57.55 136.39C36.92 136.37 20.21 119.64 20.21 99.01C20.21 78.38 36.93 61.65 57.55 61.63V31.3C86.57 31.3 110.1 54.83 110.1 83.85C110.1 112.87 86.6 136.37 57.59 136.4V136.39Z" fill="white"/>
<path d="M373.11 115.87C361.49 127.2 347.05 132.87 329.8 132.87C312.55 132.87 298.09 127.21 286.43 115.87C274.77 104.54 268.94 90.46 268.94 73.64C268.94 56.82 274.77 42.74 286.43 31.41C298.09 20.08 312.54 14.41 329.8 14.41C347.06 14.41 361.49 20.08 373.11 31.41C384.73 42.74 390.55 56.82 390.55 73.64C390.55 90.46 384.74 104.54 373.11 115.87ZM329.79 104.93C338.74 104.93 346.14 101.95 351.99 96C357.84 90.04 360.76 82.59 360.76 73.64C360.76 64.69 357.84 57.23 351.99 51.28C346.14 45.32 338.74 42.34 329.79 42.34C320.84 42.34 313.51 45.34 307.59 51.33C301.67 57.33 298.71 64.76 298.71 73.64C298.71 82.52 301.67 89.95 307.59 95.94C313.51 101.94 320.91 104.93 329.79 104.93Z" fill="white"/>
<path d="M472.52 15.27H477.39V45.05H472.52C462.27 45.05 454.27 47.86 448.53 53.49C442.79 59.12 439.92 66.77 439.92 76.45V130.16H411.12V17.11H439.92V31.73C448.58 20.75 459.45 15.27 472.52 15.27Z" fill="white"/>
<path d="M564.67 130.16C575.93 130.16 585.3 133.1 592.77 138.99C600.24 144.87 604.92 153.01 606.79 163.4L577.01 171.42C576.58 167.3 574.73 164.02 571.49 161.56C568.24 159.11 564.09 157.88 559.04 157.88H522.01C511.47 157.88 503 155.11 496.61 149.54C490.22 143.98 487.03 136.69 487.03 127.66C487.03 121.89 488.42 116.44 491.2 111.31C493.98 106.18 497.68 102.17 502.3 99.29C492.26 89.91 487.25 78.17 487.25 64.1C487.25 50.03 492.28 38.04 502.36 28.58C512.43 19.12 525.05 14.39 540.21 14.39C548.95 14.39 557.18 16.16 564.9 19.7C566.56 13.57 569.97 8.75 575.13 5.25C580.29 1.75 586.55 0 593.92 0H603.23V26.64H595.22C592.33 26.64 589.82 27.36 587.7 28.81C585.57 30.25 584.25 32.24 583.75 34.77C590.25 43.21 593.5 53 593.5 64.11C593.5 78.26 588.41 90.06 578.23 99.52C568.05 108.98 555.38 113.71 540.22 113.71C534.01 113.71 527.8 112.78 521.59 110.9C517.76 113.21 515.85 116.46 515.85 120.64C515.85 123.39 516.97 125.66 519.21 127.47C521.45 129.27 524.33 130.17 527.87 130.17H564.69L564.67 130.16ZM540.2 41.69C533.41 41.69 527.8 43.82 523.36 48.08C518.92 52.34 516.7 57.68 516.7 64.11C516.7 70.54 518.92 75.88 523.36 80.14C527.8 84.4 533.41 86.53 540.2 86.53C546.99 86.53 552.51 84.4 556.98 80.14C561.46 75.88 563.7 70.54 563.7 64.11C563.7 57.68 561.46 52.35 556.98 48.08C552.51 43.82 546.91 41.69 540.2 41.69Z" fill="white"/>
<path d="M729.17 73.86C729.17 77.47 728.95 80.86 728.52 84.04H640.91C642.93 91.19 646.79 96.86 652.5 101.04C658.2 105.23 665.13 107.32 673.29 107.32C679.86 107.32 685.89 106 691.37 103.37C696.86 100.73 701.19 97.39 704.37 93.35L723.64 110.24C717.65 117.39 710.23 122.95 701.39 126.92C692.55 130.89 682.89 132.87 672.42 132.87C660.58 132.87 649.86 130.27 640.26 125.08C630.66 119.88 623.15 112.72 617.73 103.58C612.32 94.45 609.61 84.32 609.61 73.21C609.61 62.1 612.23 52.25 617.46 43.27C622.69 34.29 629.91 27.23 639.12 22.1C648.33 16.97 658.52 14.41 669.71 14.41C686.67 14.41 700.82 20.06 712.16 31.36C723.49 42.66 729.16 56.83 729.16 73.87L729.17 73.86ZM687.85 45.97C682.62 41.74 676.5 39.63 669.5 39.63C662.5 39.63 656.4 41.74 651.2 45.97C646 50.19 642.5 55.84 640.69 62.92H698.41C696.6 55.84 693.08 50.19 687.85 45.97Z" fill="white"/>
<path d="M257.67 43.27V17.17H172.34V130.16H200.97V89.67H237.46V63.57H200.97V43.27H257.67Z" fill="white"/>
</svg>
